<svg id="Laag_1" data-name="Laag 1" xmlns="http://www.w3.org/2000/svg" viewBox="0 0 882.69 898.29"><defs><style>.cls-1{fill:lime;}.cls-2{fill:#006837;}.cls-3{fill:#fff;}</style></defs><title>R-logo</title><circle class="cls-1" cx="444.18" cy="450.6" r="437.25"/><path class="cls-2" d="M1095.31,822.51a468,468,0,0,1-31.57,168.56l-.93,2.54c-.32.84-.7,1.66-1,2.49l-2.12,5-4.21,10-1,2.49-1.16,2.45-2.35,4.88-4.69,9.77-1.17,2.44-1.28,2.39-2.57,4.78-5.14,9.56c-.44.79-.84,1.6-1.31,2.38l-1.39,2.32-2.8,4.65-5.6,9.32a445.48,445.48,0,0,1-53.3,68.85,423.24,423.24,0,0,1-227.34,125l-10.84,1.89-5.43.94-2.71.47c-.9.14-1.82.23-2.73.35l-10.92,1.31-5.46.65c-1.83.2-3.64.46-5.48.54l-11,.74-5.48.37c-1.83.1-3.66.3-5.49.3l-22,.27a436.59,436.59,0,0,1-170-37.29A462.86,462.86,0,0,1,248.9,991.47a456.28,456.28,0,0,1-36.19-169,440.58,440.58,0,0,1,30.78-171.2l1-2.57c.33-.85.72-1.68,1.07-2.52l2.19-5,4.39-10.07,1.1-2.52c.39-.83.8-1.65,1.21-2.47l2.44-4.92,4.9-9.84L263,608.9l1.34-2.4,2.69-4.8,5.37-9.59c.46-.8.89-1.61,1.37-2.39l1.46-2.33,2.93-4.66,5.86-9.31a448.17,448.17,0,0,1,200.42-167,438.34,438.34,0,0,1,84.45-25.92l10.88-2,5.45-1,2.72-.48c.91-.14,1.83-.24,2.74-.36l11-1.39,5.48-.69c1.83-.22,3.66-.49,5.5-.59,7.35-.54,14.7-1.17,22.06-1.61l22.1-.51a442.13,442.13,0,0,1,172,35.4A430.55,430.55,0,0,1,971.87,507.44a448.72,448.72,0,0,1,53.26,69l5.6,9.32,2.8,4.66,1.39,2.32c.47.78.87,1.59,1.31,2.39l5.14,9.56,2.56,4.78,1.28,2.39,1.18,2.45,4.68,9.78,2.35,4.88,1.16,2.44,1.06,2.5,4.2,10,2.12,5c.34.83.72,1.65,1,2.49l.93,2.54A465.64,465.64,0,0,1,1095.31,822.51Zm-2.5,0-.62-21.39c-.18-3.56-.54-7.12-.8-10.67l-.86-10.67c-.11-1.78-.4-3.54-.63-5.31l-.72-5.3-1.44-10.59c-.13-.88-.23-1.77-.37-2.65l-.5-2.63-1-5.25-2-10.5-.51-2.62-.63-2.6-1.27-5.19-2.54-10.37c-.77-3.48-1.93-6.86-2.93-10.27l-3.11-10.21c-1-3.43-2.28-6.74-3.45-10.1l-3.61-10c-1.14-3.37-2.65-6.6-4-9.89l-4.13-9.82-1-2.45c-.35-.81-.76-1.6-1.14-2.41l-2.31-4.8-4.63-9.58-1.16-2.39-1.26-2.34-2.55-4.67-5.1-9.33-1.28-2.32-1.4-2.26-2.78-4.53-5.56-9c-.47-.75-.91-1.52-1.41-2.25l-1.5-2.19-3-4.37-6-8.75a431.42,431.42,0,0,0-55.52-63.57,447.88,447.88,0,0,0-140.6-89.52,434.56,434.56,0,0,0-79.89-23.4,439.16,439.16,0,0,0-82.82-7.68,434.5,434.5,0,0,0-162.33,32A428.89,428.89,0,0,0,356,521.68,435.26,435.26,0,0,0,262.08,659l-4,9.69c-1.31,3.25-2.78,6.43-3.87,9.75l-3.53,9.88c-1.15,3.31-2.46,6.57-3.39,9.94l-3.06,10.05-1.54,5c-.24.84-.53,1.67-.75,2.52l-.63,2.54-2.57,10.2-1.28,5.1-.63,2.56-.51,2.58a437.07,437.07,0,0,0-9.94,83.65,428.84,428.84,0,0,0,6.71,84.29,415,415,0,0,0,259,313.36,428.33,428.33,0,0,0,81.11,22.54,451.39,451.39,0,0,0,387.14-116.64,433.56,433.56,0,0,0,55.48-63.67l6-8.76,3-4.38,1.5-2.19c.5-.74.94-1.5,1.41-2.25l5.56-9,2.78-4.53,1.39-2.26,1.29-2.33,5.09-9.33,2.55-4.68,1.27-2.34,1.15-2.39,4.64-9.59,2.3-4.8c.38-.8.79-1.59,1.14-2.41l1-2.46,4.13-9.82c1.34-3.29,2.85-6.52,4-9.89l3.61-10c1.16-3.36,2.5-6.67,3.45-10.1l3.1-10.22c1-3.42,2.16-6.8,2.92-10.28l2.53-10.38,1.27-5.19.63-2.6.5-2.62A413.24,413.24,0,0,0,1092.81,822.51Z" transform="translate(-212.62 -371.9)"/><path class="cls-3" d="M570.12,1028.06q.95-106.74,1.73-213.48c.29-43.05.65-86.11.43-129.16,0-5.83-.07-11.67-.19-17.51-.1-4.95-.69-10-.22-14.91l-1.12,8.37a29.9,29.9,0,0,1,1.47-6.11l-3.17,7.53a22.26,22.26,0,0,1,2.73-4.7l-4.92,6.38a14,14,0,0,1,2-2l-6.38,4.93a24.09,24.09,0,0,1,5-2.84L560,667.69c7.91-2.92,16.59-4.28,24.84-5.89q13.65-2.65,27.43-4.51l-8.37,1.13c31.59-4.18,64.84-6.57,96.57-2.57l-8.37-1.12a257.28,257.28,0,0,1,36.69,8.12c10.86,3.13,21.74,6.27,32.19,10.61l-7.53-3.18A100.75,100.75,0,0,1,775,682.67l-6.38-4.92a96.5,96.5,0,0,1,16.24,16.39l-4.93-6.37a104.86,104.86,0,0,1,12.41,21.31l-3.17-7.52a121.72,121.72,0,0,1,8.31,30.56l-1.13-8.37a137.66,137.66,0,0,1,.19,34.36l1.12-8.37a85.58,85.58,0,0,1-5.23,20.34l3.17-7.52A69.63,69.63,0,0,1,787,777.5l4.93-6.38a68.64,68.64,0,0,1-10.33,10.4l6.37-4.93a73.48,73.48,0,0,1-15.41,9l7.53-3.17c-19,7.93-40.39,10.67-60.59,13.43l8.38-1.13c-38.84,5.17-78.12,6.32-117.25,5-15.67-.54-28.94,12.41-30.94,27.32-.9,6.71,0,14.21,3.74,20.08,4.68,7.27,10.77,11.39,18.82,14.48q6.4,2.45,12.72,5.1l-7.53-3.17a404.33,404.33,0,0,1,88.68,51.69l-6.37-4.93a402.42,402.42,0,0,1,71.07,71l-4.92-6.37A406.1,406.1,0,0,1,796,1038.2c7.51,14.71,29.36,20.16,43.1,11.3,15-9.67,19.33-27.37,11.3-43.1A428.42,428.42,0,0,0,672.73,825.11,469.62,469.62,0,0,0,619,800.84l-8.37,61.87A736.32,736.32,0,0,0,740,856.11c20.6-2.92,41.36-6.38,60.61-14.5,25.37-10.7,43.47-30.52,53.14-56.17,10.17-27,8.67-61.62.42-89C847.8,675.41,836.7,655.54,821,640s-34.81-25-55.49-31.88c-21.7-7.24-43.78-12.81-66.51-15.49-21.29-2.51-43.24-1.81-64.58-.35A532.19,532.19,0,0,0,558.67,603a135.74,135.74,0,0,0-14.08,3.46c-11.41,3.77-20.25,10-27.21,19.85-6.64,9.46-9.23,22-8.61,33.44,1.83,34,.55,68.35.39,102.37q-.57,115.35-1.73,230.69-.15,17.64-.31,35.27c-.15,16.48,14.59,32.26,31.5,31.5,17.19-.77,31.34-13.83,31.5-31.5Z" transform="translate(-212.62 -371.9)"/></svg>